<svg width="295" height="294" xmlns="http://www.w3.org/2000/svg" xmlns:xlink="http://www.w3.org/1999/xlink" overflow="hidden"><defs><clipPath id="clip0"><path d="M478 170 773 170 773 464 478 464Z" fill-rule="evenodd" clip-rule="evenodd"/></clipPath><clipPath id="clip1"><path d="M479 170 772 170 772 464 479 464Z" fill-rule="evenodd" clip-rule="evenodd"/></clipPath><clipPath id="clip2"><path d="M479 170 772 170 772 464 479 464Z" fill-rule="evenodd" clip-rule="evenodd"/></clipPath></defs><g clip-path="url(#clip0)" transform="translate(-478 -170)"><g clip-path="url(#clip1)"><g clip-path="url(#clip2)"><path d="M198.255 122.282C198.255 198.612 133.476 260.489 53.5669 260.489-26.3422 260.489-91.1213 198.612-91.1213 122.282-91.1213 45.9517-26.3422-15.9261 53.5669-15.9261 133.476-15.9261 198.255 45.9517 198.255 122.282Z" stroke="#FFFFFF" stroke-width="0.983903" fill="#CCCCCC" transform="matrix(1 0 -0 1.04976 572.162 189.462)"/><path d="M17.5891 0.00123672 175.888 0.00123672C185.602 0.00123672 193.477 7.87626 193.477 17.5903L193.477 158.303C193.477 168.017 185.602 175.892 175.888 175.892L17.5891 175.892C7.87503 175.892 0 168.017 0 158.303L0 17.5903C0 7.87626 7.87503 0.00123672 17.5891 0.00123672Z" fill="#F0EAF9" transform="matrix(1 0 -0 1.00291 528.702 229.806)"/><path d="M8.79432 35.1806 184.682 35.1806C189.539 35.1806 193.477 39.1179 193.477 43.9749L193.477 43.9753C193.477 48.8323 189.539 52.7696 184.682 52.7696L8.79432 52.7696C3.93731 52.7696 0 48.8323 0 43.9753L0 43.9749C0 39.1179 3.93731 35.1806 8.79432 35.1806Z" fill="#E1D5F3" transform="matrix(1 0 -0 1.00291 528.702 229.806)"/><path d="M17.5891 0.00123672 175.889 0.00123672C185.603 0.00123672 193.478 7.87626 193.478 17.5903 193.478 17.5903 193.478 17.5903 193.478 17.5903L193.478 43.9737 193.478 43.9737 0 43.9737 0 43.9737 0 17.5903C0 7.87626 7.87503 0.00123672 17.5891 0.00123672Z" fill="#5628B4" transform="matrix(1 0 -0 1.00291 528.702 229.806)"/><path d="M17.5891 0.00123672 175.891 0.00123672C180.748 0.00123672 184.685 3.93854 184.685 8.79556L184.685 8.79597C184.685 13.653 180.748 17.5903 175.891 17.5903L17.5891 17.5903C12.732 17.5903 8.79473 13.653 8.79473 8.79597L8.79473 8.79556C8.79473 3.93854 12.732 0.00123672 17.5891 0.00123672Z" fill="#6F48BF" transform="matrix(1 0 -0 1.00291 528.702 229.806)"/><path d="M13.1921 35.1806 180.288 35.1806C182.716 35.1806 184.685 37.1494 184.685 39.5779L184.685 39.5779C184.685 42.0065 182.716 43.9753 180.288 43.9753L13.1921 43.9753C10.7636 43.9753 8.79473 42.0065 8.79473 39.5779L8.79473 39.5779C8.79473 37.1494 10.7636 35.1806 13.1921 35.1806Z" fill="#421198" transform="matrix(1 0 -0 1.00291 528.702 229.806)"/><path d="M189.081 61.5627C186.652 61.5627 184.684 63.5312 184.684 65.9597 184.684 65.9597 184.684 65.9597 184.684 65.9601L184.684 158.302C184.684 163.159 180.746 167.096 175.889 167.096L127.52 167.096C125.091 167.096 123.123 169.065 123.123 171.494 123.123 173.922 125.091 175.891 127.52 175.891L175.889 175.891C185.603 175.891 193.478 168.016 193.478 158.302L193.478 65.9601C193.478 63.5312 191.51 61.5627 189.081 61.5627 189.081 61.5627 189.081 61.5627 189.081 61.5627Z" fill="#D9C9EF" transform="matrix(1 0 -0 1.00291 528.702 229.806)"/><path d="M4.39737 79.1501 4.39737 79.1501C6.82587 79.1501 8.79473 81.119 8.79473 83.5475L8.79473 153.903C8.79473 156.331 6.82587 158.3 4.39737 158.3L4.39737 158.3C1.96886 158.3 0 156.331 0 153.903L0 83.5475C0 81.119 1.96886 79.1501 4.39737 79.1501Z" fill="#DFD2F2" transform="matrix(1 0 -0 1.00291 528.702 229.806)"/><path d="M26.385 21.9889C26.385 24.4175 24.4163 26.3863 21.9877 26.3863 19.5591 26.3863 17.5903 24.4175 17.5903 21.9889 17.5903 19.5603 19.5591 17.5915 21.9877 17.5915 24.4163 17.5915 26.385 19.5603 26.385 21.9889Z" fill="#F7B236" transform="matrix(1 0 -0 1.00291 528.702 229.806)"/><path d="M43.9712 21.9889C43.9712 24.4175 42.0024 26.3863 39.5738 26.3863 37.1452 26.3863 35.1765 24.4175 35.1765 21.9889 35.1765 19.5603 37.1452 17.5915 39.5738 17.5915 42.0024 17.5915 43.9712 19.5603 43.9712 21.9889Z" fill="#B39DDD" transform="matrix(1 0 -0 1.00291 528.702 229.806)"/><path d="M61.5615 21.9889C61.5615 24.4175 59.5927 26.3863 57.1641 26.3863 54.7355 26.3863 52.7668 24.4175 52.7668 21.9889 52.7668 19.5603 54.7355 17.5915 57.1641 17.5915 59.5927 17.5915 61.5615 19.5603 61.5615 21.9889Z" fill="#D80E70" transform="matrix(1 0 -0 1.00291 528.702 229.806)"/><path d="M167.095 123.124 79.1501 123.124C74.2931 123.124 70.3558 119.186 70.3558 114.329L70.3558 70.3583C70.3558 65.5013 74.2931 61.564 79.1501 61.564L167.095 61.564C171.952 61.564 175.889 65.5013 175.889 70.3583L175.889 114.329C175.889 119.186 171.952 123.124 167.095 123.124Z" fill="#B39DDD" transform="matrix(1 0 -0 1.00291 528.702 229.806)"/><path d="M43.9712 96.7404 26.3834 96.7404C21.5264 96.7404 17.5891 92.8031 17.5891 87.9461L17.5891 70.3583C17.5891 65.5013 21.5264 61.564 26.3834 61.564L43.9712 61.564C48.8282 61.564 52.7655 65.5013 52.7655 70.3583L52.7655 87.9461C52.7655 92.8031 48.8282 96.7404 43.9712 96.7404Z" fill="#B39DDD" transform="matrix(1 0 -0 1.00291 528.702 229.806)"/><path d="M43.9712 158.3 26.3834 158.3C21.5264 158.3 17.5891 154.363 17.5891 149.506L17.5891 131.918C17.5891 127.061 21.5264 123.124 26.3834 123.124L43.9712 123.124C48.8282 123.124 52.7655 127.061 52.7655 131.918L52.7655 149.506C52.7655 154.363 48.8282 158.3 43.9712 158.3Z" fill="#B39DDD" transform="matrix(1 0 -0 1.00291 528.702 229.806)"/><path d="M74.7532 131.917 101.135 131.917C103.563 131.917 105.532 133.886 105.532 136.314L105.532 136.314C105.532 138.743 103.563 140.712 101.135 140.712L74.7532 140.712C72.3247 140.712 70.3558 138.743 70.3558 136.314L70.3558 136.314C70.3558 133.886 72.3247 131.917 74.7532 131.917Z" fill="#B39DDD" transform="matrix(1 0 -0 1.00291 528.702 229.806)"/><path d="M162.696 131.917 171.491 131.917C173.919 131.917 175.888 133.886 175.888 136.314L175.888 136.314C175.888 138.743 173.919 140.712 171.491 140.712L162.696 140.712C160.268 140.712 158.299 138.743 158.299 136.314L158.299 136.314C158.299 133.886 160.268 131.917 162.696 131.917Z" fill="#B39DDD" transform="matrix(1 0 -0 1.00291 528.702 229.806)"/><path d="M118.727 131.917 145.109 131.917C147.537 131.917 149.506 133.886 149.506 136.314L149.506 136.314C149.506 138.743 147.537 140.712 145.109 140.712L118.727 140.712C116.298 140.712 114.329 138.743 114.329 136.314L114.329 136.314C114.329 133.886 116.298 131.917 118.727 131.917Z" fill="#B39DDD" transform="matrix(1 0 -0 1.00291 528.702 229.806)"/><path d="M74.7532 149.507 109.932 149.507C112.361 149.507 114.329 151.476 114.329 153.905L114.329 153.905C114.329 156.333 112.361 158.302 109.932 158.302L74.7532 158.302C72.3247 158.302 70.3558 156.333 70.3558 153.905L70.3558 153.905C70.3558 151.476 72.3247 149.507 74.7532 149.507Z" fill="#B39DDD" transform="matrix(1 0 -0 1.00291 528.702 229.806)"/><path d="M127.52 149.507 136.314 149.507C138.743 149.507 140.712 151.476 140.712 153.905L140.712 153.905C140.712 156.333 138.743 158.302 136.314 158.302L127.52 158.302C125.091 158.302 123.123 156.333 123.123 153.905L123.123 153.905C123.123 151.476 125.091 149.507 127.52 149.507Z" fill="#B39DDD" transform="matrix(1 0 -0 1.00291 528.702 229.806)"/><path d="M48.3681 114.331 21.9864 114.331C19.5579 114.331 17.5891 112.362 17.5891 109.933L17.5891 109.933C17.5891 107.505 19.5579 105.536 21.9864 105.536L48.3681 105.536C50.7967 105.536 52.7655 107.505 52.7655 109.933L52.7655 109.933C52.7655 112.362 50.7967 114.331 48.3681 114.331Z" fill="#B39DDD" transform="matrix(1 0 -0 1.00291 528.702 229.806)"/><path d="M96.7392 131.918 87.9457 131.918C63.6606 131.918 43.9733 151.605 43.9733 175.891 43.9733 175.891 43.9733 175.891 43.9733 175.891L43.9733 176.124C44.0046 180.928 39.7647 184.685 34.9609 184.685L30.7807 184.685C28.3522 184.685 26.3834 186.654 26.3834 189.083 26.3834 191.511 28.3522 193.48 30.7807 193.48L30.7807 193.48 61.5615 193.48C85.8466 193.48 105.534 173.792 105.534 149.507L105.534 131.918Z" fill="#F7B236" transform="matrix(1 0 -0 1.00291 528.702 229.806)"/><path d="M105.534 149.507 105.534 131.918 96.7392 131.918C96.7392 156.203 77.0522 175.891 52.7668 175.891L43.9737 175.891 43.9737 176.124C44.005 180.927 39.7647 184.685 34.9613 184.685L30.7807 184.685C28.3522 184.685 26.3834 186.654 26.3834 189.082 26.3834 191.511 28.3522 193.48 30.7807 193.48L61.5615 193.48C85.8466 193.479 105.534 173.792 105.534 149.507Z" fill="#F58B04" transform="matrix(1 0 -0 1.00291 528.702 229.806)"/><path d="M190.531 46.9212C187.836 44.2264 183.85 43.2852 180.234 44.4906L180.234 44.4906C149.238 55.4426 123.702 77.9942 109 107.397L105.534 114.329 105.534 131.919 123.123 131.919 130.055 128.452C159.458 113.751 182.009 88.2136 192.961 57.2181L192.961 57.2181C194.167 53.6019 193.226 49.616 190.531 46.9212Z" fill="#D80E70" transform="matrix(1 0 -0 1.00291 528.702 229.806)"/><path d="M663.194 311.777C672.331 302.613 682.522 297.976 685.957 301.421 689.391 304.865 684.768 315.086 675.631 324.25 666.494 333.414 656.302 338.05 652.868 334.606 649.434 331.161 654.057 320.94 663.194 311.777Z" fill="#E976AF"/><path d="M180.234 44.4902C178.712 45.0282 177.267 45.7211 175.771 46.314 174.626 85.7451 144.718 118.362 105.534 122.914L105.534 131.919 123.123 131.919 130.055 128.452C159.458 113.75 182.009 88.2132 192.962 57.2177 194.719 51.9456 191.869 46.2472 186.597 44.4902 184.532 43.8018 182.299 43.8018 180.234 44.4902Z" fill="#A60068" transform="matrix(1 0 -0 1.00291 528.702 229.806)"/><path d="M96.7392 131.918 105.534 140.713 123.123 131.918 105.534 114.329Z" fill="#5628B4" transform="matrix(1 0 -0 1.00291 528.702 229.806)"/><path d="M101.493 136.672 105.534 140.712 123.123 131.918 114.685 123.48C111.042 119.837 105.136 119.837 101.493 123.48 100.784 124.189 100.194 125.008 99.7457 125.905L99.7457 125.905C97.9503 129.496 98.654 133.833 101.493 136.672Z" fill="#420F9B" transform="matrix(1 0 -0 1.00291 528.702 229.806)"/><path d="M590.083 379.436C596.915 372.584 604.622 369.204 607.298 371.887 609.973 374.57 606.603 382.299 599.77 389.152 592.938 396.004 585.231 399.384 582.556 396.701 579.88 394.018 583.25 386.288 590.083 379.436Z" fill="#FBDA9E"/></g></g></g></svg>